<?xml version="1.0" encoding="utf-8"?>
<svg viewBox="0 0 500 500" xmlns="http://www.w3.org/2000/svg">
  <style>
    path {
      fill: black;
    }
    @media (prefers-color-scheme: dark) {
      path {
        fill: white;
      }
    }
  </style>
  <path
    d="M 104.955 291.334 Q 93.924 296.674 76.147 296.674 Q 52.96 296.674 39.68 283.042 Q 26.401 269.411 26.401 246.716 Q 26.401 222.545 41.332 207.509 Q 56.263 192.473 80.082 192.473 Q 94.837 192.473 104.955 196.197 L 104.955 218.049 Q 94.837 212.006 81.909 212.006 Q 67.716 212.006 59.003 220.929 Q 50.29 229.853 50.29 245.1 Q 50.29 259.715 58.511 268.392 Q 66.732 277.07 80.644 277.07 Q 93.924 277.07 104.955 270.606 Z M 154.627 296.674 Q 136.64 296.674 126.346 286.591 Q 116.053 276.508 116.053 259.223 Q 116.053 241.376 126.733 231.293 Q 137.413 221.21 155.611 221.21 Q 173.528 221.21 183.717 231.293 Q 193.905 241.376 193.905 257.958 Q 193.905 275.876 183.4 286.275 Q 172.896 296.674 154.627 296.674 Z M 155.189 238.214 Q 147.32 238.214 142.964 243.625 Q 138.607 249.035 138.607 258.942 Q 138.607 279.67 155.33 279.67 Q 171.28 279.67 171.28 258.38 Q 171.28 238.214 155.189 238.214 Z"
    transform="matrix(1.540525, 0, 0, 1.540525, 4.540328, -253.771667)"
    style="white-space: pre;"/>
  <path transform="matrix(1.540525, 0, 0, 1.540525, 4.540328, -253.771667)"
        style="white-space: pre;"/>
  <path
    d="M 103.48 356.538 L 74.742 356.538 L 74.742 438.817 L 51.976 438.817 L 51.976 356.538 L 23.379 356.538 L 23.379 338.059 L 103.48 338.059 Z M 126.103 355.484 Q 120.482 355.484 116.898 352.147 Q 113.315 348.809 113.315 343.961 Q 113.315 338.972 116.898 335.81 Q 120.482 332.649 126.103 332.649 Q 131.794 332.649 135.343 335.81 Q 138.891 338.972 138.891 343.961 Q 138.891 349.02 135.343 352.252 Q 131.794 355.484 126.103 355.484 Z M 137.064 438.817 L 114.861 438.817 L 114.861 366.867 L 137.064 366.867 Z M 178.237 430.456 L 177.956 430.456 L 177.956 471.911 L 155.752 471.911 L 155.752 366.867 L 177.956 366.867 L 177.956 377.688 L 178.237 377.688 Q 186.458 365.11 201.353 365.11 Q 215.336 365.11 222.959 374.701 Q 230.583 384.292 230.583 400.804 Q 230.583 418.792 221.695 429.683 Q 212.806 440.574 198.051 440.574 Q 185.052 440.574 178.237 430.456 Z M 177.604 400.945 L 177.604 406.706 Q 177.604 414.154 181.539 418.862 Q 185.474 423.57 191.868 423.57 Q 199.456 423.57 203.637 417.703 Q 207.818 411.836 207.818 401.085 Q 207.818 382.114 193.062 382.114 Q 186.247 382.114 181.926 387.279 Q 177.604 392.443 177.604 400.945 Z M 240.278 436.92 L 240.278 418.932 Q 245.759 422.235 251.204 423.851 Q 256.65 425.467 261.498 425.467 Q 267.4 425.467 270.808 423.851 Q 274.216 422.235 274.216 418.932 Q 274.216 416.824 272.67 415.419 Q 271.124 414.014 268.7 412.96 Q 266.276 411.906 263.395 411.063 Q 260.514 410.22 257.844 409.166 Q 253.558 407.55 250.291 405.688 Q 247.024 403.826 244.81 401.366 Q 242.597 398.907 241.438 395.675 Q 240.278 392.443 240.278 388.016 Q 240.278 381.974 242.913 377.617 Q 245.548 373.261 249.94 370.486 Q 254.331 367.71 259.987 366.41 Q 265.643 365.11 271.756 365.11 Q 276.534 365.11 281.453 365.848 Q 286.371 366.586 291.149 367.991 L 291.149 385.136 Q 286.933 382.676 282.12 381.447 Q 277.307 380.217 272.67 380.217 Q 270.492 380.217 268.559 380.604 Q 266.627 380.99 265.152 381.728 Q 263.676 382.466 262.833 383.625 Q 261.99 384.784 261.99 386.26 Q 261.99 388.227 263.254 389.632 Q 264.519 391.038 266.557 392.057 Q 268.595 393.075 271.089 393.883 Q 273.583 394.691 276.042 395.535 Q 280.469 397.08 284.053 398.907 Q 287.636 400.734 290.201 403.193 Q 292.765 405.653 294.135 408.955 Q 295.505 412.257 295.505 416.824 Q 295.505 423.218 292.73 427.75 Q 289.955 432.282 285.352 435.128 Q 280.75 437.974 274.743 439.274 Q 268.735 440.574 262.271 440.574 Q 250.396 440.574 240.278 436.92 Z"
    transform="matrix(1.540525, 0, 0, 1.540525, 4.540328, -253.771667)"
    style="white-space: pre;"/>
</svg>
